<svg xmlns="http://www.w3.org/2000/svg" viewBox="0 0 115 21.32"><defs><style>.cls-1,.cls-2{fill:#1f1f1f;}.cls-1{fill-rule:evenodd;}</style></defs><g id="レイヤー_2" data-name="レイヤー 2"><g id="レイヤー_1-2" data-name="レイヤー 1"><g id="レイヤー_2-2" data-name="レイヤー 2"><g id="レイヤー_1-2-2" data-name="レイヤー 1-2"><path class="cls-1" d="M74.86,10.11V10a10.33,10.33,0,0,1,20.65,0h0a10.33,10.33,0,0,1-20.65.06Zm16.19,0V10a5.9,5.9,0,0,0-5.7-6.1h-.18a5.81,5.81,0,0,0-5.84,5.78V10A5.9,5.9,0,0,0,85,16.11h.2A5.79,5.79,0,0,0,91,10.36v-.25Z"/><path class="cls-2" d="M0,.34H4.28V8h7.88V.34h4.27V19.77H12.16V12H4.28v7.8H0Z"/><path class="cls-1" d="M32.39.34H23.52V19.77H27.8V13.56h3.35l4.16,6.21h5l-4.74-6.94a6,6,0,0,0,4.16-6V6.75a6.08,6.08,0,0,0-1.67-4.44A7.76,7.76,0,0,0,32.39.34ZM35.4,7c0,1.64-1.2,2.75-3.28,2.75H27.8V4.2H32c2.09,0,3.37.94,3.37,2.78Z"/><path class="cls-2" d="M102.14,13.91l-2.52,3a12.38,12.38,0,0,0,8.24,3.1c4.2,0,7.14-2.17,7.14-6h0c0-3.4-2.22-4.8-6.17-5.83-3.35-.86-4.19-1.27-4.19-2.55v-.1c0-.93.86-1.69,2.5-1.69a9.16,9.16,0,0,1,5.06,1.91l2.21-3.21A11.17,11.17,0,0,0,107.2.07c-4,0-6.79,2.33-6.81,5.86V6c0,3.85,2.53,4.94,6.45,5.94,3.24.83,3.91,1.39,3.91,2.46v.06c0,1.14-1,1.83-2.8,1.83A9,9,0,0,1,102.14,13.91Z"/><path class="cls-2" d="M57.35,21.32l-3.18-2.86A29.58,29.58,0,0,0,61.65.34h4.27a29.18,29.18,0,0,0,7,17.54l-3.25,2.78a33.62,33.62,0,0,1-5.89-9.91A33.64,33.64,0,0,1,57.35,21.32Z"/><path class="cls-2" d="M49.5.34h4.27a14.56,14.56,0,0,0,3.45,9.42,28.18,28.18,0,0,1-2.43,4.36A22.66,22.66,0,0,1,52,9.86,33.63,33.63,0,0,1,46.31,20L43,17.32A29.24,29.24,0,0,0,49.5.34Z"/></g></g></g></g></svg>